<svg width="36" height="17" viewBox="0 0 36 17" fill="none" xmlns="http://www.w3.org/2000/svg">
<g clip-path="url(#clip0_102_7)">
<path d="M29.0144 12.6212H26.8061V6.07571H25.0294V4.22787H30.7911V6.07571H29.0144V12.6212Z" fill="white"/>
<path d="M5 4.22787H8.05851C9.24828 4.24348 10.2414 4.64301 11.0409 5.42959C11.8499 6.21617 12.2624 7.215 12.275 8.42296C12.2592 9.63404 11.8499 10.6235 11.0409 11.3945C10.2414 12.1967 9.24828 12.6024 8.05851 12.6181H5V4.22787ZM7.20822 10.7733H7.69047C8.34723 10.7796 8.89928 10.5923 9.3498 10.2084C9.79716 9.82759 10.0288 9.23449 10.0446 8.42608C10.0383 7.66136 9.81939 7.07766 9.39423 6.67501C8.9659 6.28172 8.40433 6.08196 7.71268 6.07571H7.20822V10.7733Z" fill="white"/>
<path d="M18.6209 4C19.855 4.01561 20.9147 4.4089 21.7968 5.18923C22.701 5.96645 23.1674 6.99337 23.1864 8.27C23.1706 9.63405 22.7454 10.7328 21.9078 11.5662C21.067 12.4089 19.9693 12.8365 18.6177 12.8521C17.2661 12.8365 16.1747 12.4089 15.3435 11.5662C14.4963 10.7359 14.0648 9.63713 14.049 8.27C14.0712 6.99337 14.5376 5.96645 15.4513 5.18923C16.3397 4.4089 17.3962 4.01561 18.6209 4ZM18.6209 6.10691C17.9705 6.11315 17.4216 6.33164 16.9742 6.76239C16.5205 7.18065 16.2889 7.68631 16.2826 8.27624C16.2889 8.99727 16.5205 9.58407 16.9742 10.0367C17.4216 10.4955 17.9705 10.7296 18.6209 10.7359C19.2903 10.7296 19.8424 10.4955 20.277 10.0367C20.7244 9.58407 20.9496 8.99727 20.9592 8.27624C20.9528 7.68631 20.7244 7.18065 20.277 6.76239C19.8424 6.33477 19.2903 6.11627 18.6209 6.10691Z" fill="white"/>
</g>
<defs>
<clipPath id="clip0_102_7">
<rect width="26" height="9" fill="white" transform="translate(5 4)"/>
</clipPath>
</defs>
</svg>
